STARTFONT 2.1
FONT -FontForge-Tangerine-Book-R-Normal--20-200-72-72-P-74-ISO10646-1
SIZE 20 72 72
FONTBOUNDINGBOX 32 21 -6 -5
COMMENT "Generated by fontforge, http://fontforge.sourceforge.net"
COMMENT "Copyright (c) 2010 by Toshi Omagari. All rights reserved."
STARTPROPERTIES 39
FOUNDRY "FontForge"
FAMILY_NAME "Tangerine"
WEIGHT_NAME "Book"
SLANT "R"
SETWIDTH_NAME "Normal"
ADD_STYLE_NAME ""
PIXEL_SIZE 20
POINT_SIZE 200
RESOLUTION_X 72
RESOLUTION_Y 72
SPACING "P"
AVERAGE_WIDTH 74
CHARSET_REGISTRY "ISO10646"
CHARSET_ENCODING "1"
FONTNAME_REGISTRY ""
CHARSET_COLLECTIONS "ISO10646-1"
FONT_NAME "Tangerine-Regular"
FACE_NAME "Tangerine Regular"
COPYRIGHT "Copyright (c) 2010 by Toshi Omagari. All rights reserved."
FONT_VERSION "1.3"
FONT_ASCENT 15
FONT_DESCENT 5
UNDERLINE_POSITION -2
UNDERLINE_THICKNESS 1
X_HEIGHT 4
CAP_HEIGHT 12
RAW_ASCENT 750
RAW_DESCENT 250
NORM_SPACE 3
RELATIVE_WEIGHT 40
RELATIVE_SETWIDTH 50
SUPERSCRIPT_X 0
SUPERSCRIPT_Y 9
SUPERSCRIPT_SIZE 13
SUBSCRIPT_X 0
SUBSCRIPT_Y 2
SUBSCRIPT_SIZE 13
AVG_LOWERCASE_WIDTH 49
AVG_UPPERCASE_WIDTH 141
ENDPROPERTIES
CHARS 233
STARTCHAR space
ENCODING 32
SWIDTH 150 0
DWIDTH 3 0
BBX 1 1 0 0
BITMAP
00
ENDCHAR
STARTCHAR exclam
ENCODING 33
SWIDTH 189 0
DWIDTH 4 0
BBX 5 10 1 0
BITMAP
08
08
10
10
20
20
40
40
00
80
ENDCHAR
STARTCHAR quotedbl
ENCODING 34
SWIDTH 214 0
DWIDTH 4 0
BBX 5 3 1 5
BITMAP
48
90
A0
ENDCHAR
STARTCHAR numbersign
ENCODING 35
SWIDTH 289 0
DWIDTH 6 0
BBX 7 6 0 0
BITMAP
14
FE
48
FC
50
A0
ENDCHAR
STARTCHAR dollar
ENCODING 36
SWIDTH 269 0
DWIDTH 5 0
BBX 5 8 0 -1
BITMAP
08
38
28
30
30
D0
E0
80
ENDCHAR
STARTCHAR percent
ENCODING 37
SWIDTH 388 0
DWIDTH 8 0
BBX 7 9 0 -1
BITMAP
02
02
64
98
B2
5E
2A
4C
40
ENDCHAR
STARTCHAR ampersand
ENCODING 38
SWIDTH 507 0
DWIDTH 10 0
BBX 10 10 0 0
BITMAP
0C00
1400
1400
1800
1000
70C0
9B00
8A00
8400
7BC0
ENDCHAR
STARTCHAR quotesingle
ENCODING 39
SWIDTH 120 0
DWIDTH 2 0
BBX 2 3 1 5
BITMAP
40
80
80
ENDCHAR
STARTCHAR parenleft
ENCODING 40
SWIDTH 250 0
DWIDTH 5 0
BBX 5 15 2 -2
BITMAP
18
10
20
40
40
40
80
80
80
80
80
80
80
80
80
ENDCHAR
STARTCHAR parenright
ENCODING 41
SWIDTH 276 0
DWIDTH 6 0
BBX 4 15 1 -2
BITMAP
10
10
10
10
10
10
10
10
10
20
20
20
40
80
80
ENDCHAR
STARTCHAR asterisk
ENCODING 42
SWIDTH 188 0
DWIDTH 4 0
BBX 3 2 1 6
BITMAP
40
E0
ENDCHAR
STARTCHAR plus
ENCODING 43
SWIDTH 301 0
DWIDTH 6 0
BBX 5 5 1 0
BITMAP
20
40
F8
40
40
ENDCHAR
STARTCHAR comma
ENCODING 44
SWIDTH 112 0
DWIDTH 2 0
BBX 2 2 0 -1
BITMAP
40
80
ENDCHAR
STARTCHAR hyphen
ENCODING 45
SWIDTH 245 0
DWIDTH 5 0
BBX 3 1 1 3
BITMAP
E0
ENDCHAR
STARTCHAR period
ENCODING 46
SWIDTH 112 0
DWIDTH 2 0
BBX 1 2 1 0
BITMAP
80
80
ENDCHAR
STARTCHAR slash
ENCODING 47
SWIDTH 210 0
DWIDTH 4 0
BBX 9 14 -1 -1
BITMAP
0080
0100
0200
0200
0400
0400
0800
1000
1000
2000
2000
4000
4000
8000
ENDCHAR
STARTCHAR zero
ENCODING 48
SWIDTH 349 0
DWIDTH 7 0
BBX 6 6 1 0
BITMAP
38
C4
84
84
88
70
ENDCHAR
STARTCHAR one
ENCODING 49
SWIDTH 189 0
DWIDTH 4 0
BBX 4 6 1 0
BITMAP
70
20
40
40
80
80
ENDCHAR
STARTCHAR two
ENCODING 50
SWIDTH 277 0
DWIDTH 6 0
BBX 6 6 0 0
BITMAP
1C
64
04
18
20
FC
ENDCHAR
STARTCHAR three
ENCODING 51
SWIDTH 253 0
DWIDTH 5 0
BBX 6 9 -1 -3
BITMAP
3C
04
0C
30
0C
04
04
88
F0
ENDCHAR
STARTCHAR four
ENCODING 52
SWIDTH 363 0
DWIDTH 7 0
BBX 8 10 1 0
BITMAP
01
02
0C
14
28
48
8A
FC
10
10
ENDCHAR
STARTCHAR five
ENCODING 53
SWIDTH 250 0
DWIDTH 5 0
BBX 8 9 -2 -3
BITMAP
0F
10
10
18
0C
04
04
88
70
ENDCHAR
STARTCHAR six
ENCODING 54
SWIDTH 296 0
DWIDTH 6 0
BBX 8 10 1 0
BITMAP
07
19
20
40
50
68
88
88
90
E0
ENDCHAR
STARTCHAR seven
ENCODING 55
SWIDTH 326 0
DWIDTH 7 0
BBX 7 9 0 -3
BITMAP
3E
42
44
08
10
20
20
40
80
ENDCHAR
STARTCHAR eight
ENCODING 56
SWIDTH 305 0
DWIDTH 6 0
BBX 6 10 1 0
BITMAP
08
34
24
28
10
78
88
88
88
70
ENDCHAR
STARTCHAR nine
ENCODING 57
SWIDTH 304 0
DWIDTH 6 0
BBX 7 9 -1 -3
BITMAP
1E
22
22
22
24
3C
08
88
70
ENDCHAR
STARTCHAR colon
ENCODING 58
SWIDTH 156 0
DWIDTH 3 0
BBX 3 5 0 0
BITMAP
20
00
00
00
80
ENDCHAR
STARTCHAR semicolon
ENCODING 59
SWIDTH 156 0
DWIDTH 3 0
BBX 3 7 0 -2
BITMAP
20
00
00
00
40
80
80
ENDCHAR
STARTCHAR less
ENCODING 60
SWIDTH 301 0
DWIDTH 6 0
BBX 5 4 1 1
BITMAP
08
30
C0
70
ENDCHAR
STARTCHAR equal
ENCODING 61
SWIDTH 301 0
DWIDTH 6 0
BBX 5 3 1 1
BITMAP
F8
00
F0
ENDCHAR
STARTCHAR greater
ENCODING 62
SWIDTH 301 0
DWIDTH 6 0
BBX 4 4 1 1
BITMAP
60
10
20
C0
ENDCHAR
STARTCHAR question
ENCODING 63
SWIDTH 285 0
DWIDTH 6 0
BBX 7 10 1 0
BITMAP
1C
22
02
04
08
10
60
40
00
80
ENDCHAR
STARTCHAR at
ENCODING 64
SWIDTH 492 0
DWIDTH 10 0
BBX 9 10 0 -2
BITMAP
1E00
2100
4080
9E80
9480
9D00
9D00
8200
4300
3C00
ENDCHAR
STARTCHAR A
ENCODING 65
SWIDTH 996 0
DWIDTH 20 0
BBX 19 13 1 0
BITMAP
001F80
006060
0080C0
008140
000280
000480
000880
007F00
801100
806100
808100
810120
7E00C0
ENDCHAR
STARTCHAR B
ENCODING 66
SWIDTH 638 0
DWIDTH 13 0
BBX 12 14 1 0
BITMAP
0040
03C0
0D30
1210
0210
0210
04E0
0420
0410
0810
0810
D010
6020
1FC0
ENDCHAR
STARTCHAR C
ENCODING 67
SWIDTH 557 0
DWIDTH 11 0
BBX 11 13 1 0
BITMAP
07E0
1820
2020
4000
4000
8000
8000
8000
8000
8040
4040
6080
1F80
ENDCHAR
STARTCHAR D
ENCODING 68
SWIDTH 799 0
DWIDTH 16 0
BBX 16 13 0 0
BITMAP
07DC
1830
2048
2044
0082
0082
0081
0101
0101
0201
0202
7C04
F3F8
ENDCHAR
STARTCHAR E
ENCODING 69
SWIDTH 494 0
DWIDTH 10 0
BBX 10 13 1 0
BITMAP
0780
1840
1080
1000
0800
3C00
6000
4000
8000
8000
8100
C100
3E00
ENDCHAR
STARTCHAR F
ENCODING 70
SWIDTH 626 0
DWIDTH 13 0
BBX 16 13 1 0
BITMAP
03FC
0C13
1020
0020
0020
0040
07F0
0040
4080
8080
8100
8200
7C00
ENDCHAR
STARTCHAR G
ENCODING 71
SWIDTH 571 0
DWIDTH 11 0
BBX 15 17 -1 -4
BITMAP
001C
0062
0182
0104
0200
0400
0400
0400
0410
0410
0460
43A0
8040
8040
8080
C100
7E00
ENDCHAR
STARTCHAR H
ENCODING 72
SWIDTH 865 0
DWIDTH 17 0
BBX 22 14 1 0
BITMAP
00000C
03E034
0C3040
084080
084100
008100
008200
0F8200
30F200
C10F00
810400
820400
840500
780600
ENDCHAR
STARTCHAR I
ENCODING 73
SWIDTH 554 0
DWIDTH 11 0
BBX 14 13 1 0
BITMAP
001C
0070
0090
0120
0220
0220
0440
0440
4240
8180
8100
C200
7C00
ENDCHAR
STARTCHAR J
ENCODING 74
SWIDTH 634 0
DWIDTH 13 0
BBX 17 17 0 -4
BITMAP
000380
000E00
003200
004400
008400
008400
008800
008800
008800
0C7800
302000
402000
804000
80C000
818000
C20000
7C0000
ENDCHAR
STARTCHAR K
ENCODING 75
SWIDTH 936 0
DWIDTH 19 0
BBX 19 13 1 0
BITMAP
01F0E0
061B20
082400
102800
105000
106000
005000
005000
C09000
808800
810800
820480
7C0380
ENDCHAR
STARTCHAR L
ENCODING 76
SWIDTH 657 0
DWIDTH 13 0
BBX 15 13 0 0
BITMAP
001E
0022
0042
0080
0080
0100
0100
0100
0200
0200
7408
8E10
F9E0
ENDCHAR
STARTCHAR M
ENCODING 77
SWIDTH 1219 0
DWIDTH 24 0
BBX 25 13 1 0
BITMAP
007E0080
0181C100
01008600
02008A00
00031400
00032400
40054400
800A8800
80128800
80230800
80420800
40820B00
3F040400
ENDCHAR
STARTCHAR N
ENCODING 78
SWIDTH 990 0
DWIDTH 20 0
BBX 24 13 1 0
BITMAP
01D003
06300D
001810
001410
002420
002220
002140
804140
804140
808080
810080
C20080
7C0080
ENDCHAR
STARTCHAR O
ENCODING 79
SWIDTH 606 0
DWIDTH 12 0
BBX 12 13 1 0
BITMAP
07C0
1860
2030
4010
4010
8010
8010
8010
8020
8040
C040
6180
3E00
ENDCHAR
STARTCHAR P
ENCODING 80
SWIDTH 783 0
DWIDTH 16 0
BBX 17 14 1 0
BITMAP
000400
007E00
019100
021080
042080
042080
002080
00C100
004200
C0BC00
808000
810000
C20000
7C0000
ENDCHAR
STARTCHAR Q
ENCODING 81
SWIDTH 563 0
DWIDTH 11 0
BBX 14 16 1 -3
BITMAP
0F80
1040
2020
2020
4020
4020
4020
4040
4080
3900
0200
0C00
F000
0C00
0304
00F8
ENDCHAR
STARTCHAR R
ENCODING 82
SWIDTH 854 0
DWIDTH 17 0
BBX 16 14 1 0
BITMAP
0008
007C
01A6
0622
0042
0042
0044
00A8
00B0
40A0
8110
8210
8419
780E
ENDCHAR
STARTCHAR S
ENCODING 83
SWIDTH 480 0
DWIDTH 10 0
BBX 10 13 1 0
BITMAP
0380
0C40
0840
0800
0C00
0400
0200
0300
4100
8100
8100
8200
7C00
ENDCHAR
STARTCHAR T
ENCODING 84
SWIDTH 577 0
DWIDTH 12 0
BBX 16 13 1 0
BITMAP
03F8
0C0F
1010
1020
2020
2020
0040
0040
0040
8080
8100
8200
7C00
ENDCHAR
STARTCHAR U
ENCODING 85
SWIDTH 752 0
DWIDTH 15 0
BBX 16 13 1 0
BITMAP
1F01
6182
8202
8404
8804
8808
8808
1018
1030
1050
1090
1114
0E18
ENDCHAR
STARTCHAR V
ENCODING 86
SWIDTH 661 0
DWIDTH 13 0
BBX 14 13 1 0
BITMAP
1C18
622C
8204
8104
8104
0108
0108
0110
0120
0140
0280
0300
0200
ENDCHAR
STARTCHAR W
ENCODING 87
SWIDTH 822 0
DWIDTH 16 0
BBX 16 13 2 0
BITMAP
3801
C417
8661
8241
8241
02C2
0342
0244
0648
0450
0460
0860
0840
ENDCHAR
STARTCHAR X
ENCODING 88
SWIDTH 813 0
DWIDTH 16 0
BBX 16 13 1 0
BITMAP
0103
068D
0491
00A0
00C0
00C0
0040
00C0
0140
8220
8220
8C13
F00E
ENDCHAR
STARTCHAR Y
ENCODING 89
SWIDTH 662 0
DWIDTH 13 0
BBX 18 16 0 -3
BITMAP
00C040
034080
004080
008100
008100
008200
010200
010400
390C00
411800
81F000
801000
802000
804000
418000
3E0000
ENDCHAR
STARTCHAR Z
ENCODING 90
SWIDTH 625 0
DWIDTH 13 0
BBX 13 13 1 0
BITMAP
03C0
0438
0820
1040
0080
0100
0200
0400
0800
1020
6020
7040
8F80
ENDCHAR
STARTCHAR bracketleft
ENCODING 91
SWIDTH 318 0
DWIDTH 6 0
BBX 7 14 2 -2
BITMAP
1E
10
20
20
20
40
40
40
40
80
80
80
80
E0
ENDCHAR
STARTCHAR backslash
ENCODING 92
SWIDTH 212 0
DWIDTH 4 0
BBX 3 14 1 -1
BITMAP
80
80
80
80
80
80
80
80
80
40
40
40
40
20
ENDCHAR
STARTCHAR bracketright
ENCODING 93
SWIDTH 339 0
DWIDTH 7 0
BBX 7 14 0 -2
BITMAP
0E
02
02
04
04
04
04
08
08
08
08
10
10
F0
ENDCHAR
STARTCHAR asciicircum
ENCODING 94
SWIDTH 272 0
DWIDTH 5 0
BBX 4 4 1 4
BITMAP
20
60
90
90
ENDCHAR
STARTCHAR underscore
ENCODING 95
SWIDTH 356 0
DWIDTH 7 0
BBX 6 1 0 -1
BITMAP
FC
ENDCHAR
STARTCHAR grave
ENCODING 96
SWIDTH 155 0
DWIDTH 3 0
BBX 3 2 0 6
BITMAP
C0
60
ENDCHAR
STARTCHAR a
ENCODING 97
SWIDTH 294 0
DWIDTH 6 0
BBX 4 5 1 0
BITMAP
70
50
A0
A0
D0
ENDCHAR
STARTCHAR b
ENCODING 98
SWIDTH 247 0
DWIDTH 5 0
BBX 11 15 0 0
BITMAP
00C0
0320
0400
0800
0800
1000
1000
2000
2000
2000
5800
6800
8800
9000
E000
ENDCHAR
STARTCHAR c
ENCODING 99
SWIDTH 203 0
DWIDTH 4 0
BBX 4 5 0 0
BITMAP
70
80
80
A0
C0
ENDCHAR
STARTCHAR d
ENCODING 100
SWIDTH 285 0
DWIDTH 6 0
BBX 11 15 1 0
BITMAP
0060
0180
0200
0200
0400
0400
0800
0800
1000
1000
7000
A000
A000
A000
F000
ENDCHAR
STARTCHAR e
ENCODING 101
SWIDTH 206 0
DWIDTH 4 0
BBX 3 5 1 0
BITMAP
E0
A0
C0
80
E0
ENDCHAR
STARTCHAR f
ENCODING 102
SWIDTH 156 0
DWIDTH 3 0
BBX 16 20 -6 -5
BITMAP
0003
000D
0010
0020
0020
0040
0040
0040
0080
0080
01E0
0080
0100
0100
0200
0200
0400
0400
8800
F000
ENDCHAR
STARTCHAR g
ENCODING 103
SWIDTH 210 0
DWIDTH 4 0
BBX 7 10 -2 -5
BITMAP
1E
14
14
18
08
08
C4
84
C4
78
ENDCHAR
STARTCHAR h
ENCODING 104
SWIDTH 292 0
DWIDTH 6 0
BBX 11 15 0 0
BITMAP
00E0
0320
0400
0800
0800
1000
1000
2000
2000
4000
5800
6800
D000
9000
9800
ENDCHAR
STARTCHAR i
ENCODING 105
SWIDTH 149 0
DWIDTH 3 0
BBX 3 8 1 0
BITMAP
20
40
00
40
C0
80
80
C0
ENDCHAR
STARTCHAR j
ENCODING 106
SWIDTH 136 0
DWIDTH 3 0
BBX 10 13 -6 -5
BITMAP
0040
0080
0000
0080
0380
0100
0100
0200
0200
0400
0400
8800
F000
ENDCHAR
STARTCHAR k
ENCODING 107
SWIDTH 259 0
DWIDTH 5 0
BBX 11 15 0 0
BITMAP
00E0
0320
0400
0800
0800
1000
2000
2000
2000
4000
7800
4800
B000
A000
9800
ENDCHAR
STARTCHAR l
ENCODING 108
SWIDTH 134 0
DWIDTH 3 0
BBX 9 15 1 0
BITMAP
0180
0680
0800
0800
1000
1000
2000
2000
4000
4000
4000
8000
8000
8000
C000
ENDCHAR
STARTCHAR m
ENCODING 109
SWIDTH 413 0
DWIDTH 8 0
BBX 8 5 0 0
BITMAP
7F
69
4A
92
93
ENDCHAR
STARTCHAR n
ENCODING 110
SWIDTH 291 0
DWIDTH 6 0
BBX 6 5 0 0
BITMAP
CC
78
48
48
8C
ENDCHAR
STARTCHAR o
ENCODING 111
SWIDTH 225 0
DWIDTH 5 0
BBX 4 5 0 0
BITMAP
70
90
A0
A0
C0
ENDCHAR
STARTCHAR p
ENCODING 112
SWIDTH 261 0
DWIDTH 5 0
BBX 6 11 -1 -5
BITMAP
10
3C
24
44
48
70
80
80
80
80
C0
ENDCHAR
STARTCHAR q
ENCODING 113
SWIDTH 269 0
DWIDTH 5 0
BBX 6 10 0 -5
BITMAP
3C
48
88
98
F0
10
20
20
20
30
ENDCHAR
STARTCHAR r
ENCODING 114
SWIDTH 195 0
DWIDTH 4 0
BBX 4 5 1 0
BITMAP
D0
60
40
80
80
ENDCHAR
STARTCHAR s
ENCODING 115
SWIDTH 188 0
DWIDTH 4 0
BBX 5 5 -1 0
BITMAP
38
20
10
90
E0
ENDCHAR
STARTCHAR t
ENCODING 116
SWIDTH 171 0
DWIDTH 3 0
BBX 3 8 1 0
BITMAP
20
40
40
E0
80
80
80
C0
ENDCHAR
STARTCHAR u
ENCODING 117
SWIDTH 299 0
DWIDTH 6 0
BBX 5 5 1 0
BITMAP
48
D0
90
F0
98
ENDCHAR
STARTCHAR v
ENCODING 118
SWIDTH 271 0
DWIDTH 5 0
BBX 5 5 1 0
BITMAP
D8
48
90
A0
C0
ENDCHAR
STARTCHAR w
ENCODING 119
SWIDTH 369 0
DWIDTH 7 0
BBX 7 5 0 0
BITMAP
D6
52
72
54
98
ENDCHAR
STARTCHAR x
ENCODING 120
SWIDTH 263 0
DWIDTH 5 0
BBX 6 5 0 0
BITMAP
4C
34
20
E0
98
ENDCHAR
STARTCHAR y
ENCODING 121
SWIDTH 280 0
DWIDTH 6 0
BBX 9 10 -3 -5
BITMAP
0480
0C80
0900
0B00
0E00
0200
0200
8400
8800
F000
ENDCHAR
STARTCHAR z
ENCODING 122
SWIDTH 238 0
DWIDTH 5 0
BBX 6 5 -1 0
BITMAP
3C
50
20
48
F0
ENDCHAR
STARTCHAR braceleft
ENCODING 123
SWIDTH 291 0
DWIDTH 6 0
BBX 6 14 2 -2
BITMAP
1C
20
20
20
20
40
80
40
40
80
80
80
80
C0
ENDCHAR
STARTCHAR bar
ENCODING 124
SWIDTH 162 0
DWIDTH 3 0
BBX 1 18 1 -5
BITMAP
80
80
80
80
80
80
80
80
80
80
80
80
80
80
80
80
80
80
ENDCHAR
STARTCHAR braceright
ENCODING 125
SWIDTH 285 0
DWIDTH 6 0
BBX 6 14 0 -2
BITMAP
0C
04
04
04
08
08
0C
08
10
10
10
20
20
C0
ENDCHAR
STARTCHAR asciitilde
ENCODING 126
SWIDTH 383 0
DWIDTH 8 0
BBX 6 2 1 3
BITMAP
64
98
ENDCHAR
STARTCHAR space.dup1
ENCODING 160
SWIDTH 150 0
DWIDTH 3 0
BBX 1 1 0 0
BITMAP
00
ENDCHAR
STARTCHAR exclamdown
ENCODING 161
SWIDTH 189 0
DWIDTH 4 0
BBX 5 10 -1 -5
BITMAP
08
00
30
20
20
40
40
40
80
80
ENDCHAR
STARTCHAR cent
ENCODING 162
SWIDTH 194 0
DWIDTH 4 0
BBX 4 9 0 -2
BITMAP
10
70
A0
A0
C0
E0
80
80
80
ENDCHAR
STARTCHAR sterling
ENCODING 163
SWIDTH 344 0
DWIDTH 7 0
BBX 6 6 1 0
BITMAP
0C
14
20
78
40
FC
ENDCHAR
STARTCHAR currency
ENCODING 164
SWIDTH 344 0
DWIDTH 7 0
BBX 7 6 0 0
BITMAP
42
7C
44
44
48
B8
ENDCHAR
STARTCHAR yen
ENCODING 165
SWIDTH 309 0
DWIDTH 6 0
BBX 6 6 1 0
BITMAP
DC
60
F0
40
E0
40
ENDCHAR
STARTCHAR brokenbar
ENCODING 166
SWIDTH 162 0
DWIDTH 3 0
BBX 1 18 1 -5
BITMAP
80
80
80
80
80
80
80
00
00
00
00
80
80
80
80
80
80
80
ENDCHAR
STARTCHAR section
ENCODING 167
SWIDTH 395 0
DWIDTH 8 0
BBX 10 15 -1 -5
BITMAP
03C0
0640
0A40
0A00
0A00
0A00
0A00
0900
0500
0500
0500
8500
8600
8A00
7C00
ENDCHAR
STARTCHAR dieresis
ENCODING 168
SWIDTH 174 0
DWIDTH 3 0
BBX 3 1 0 6
BITMAP
A0
ENDCHAR
STARTCHAR copyright
ENCODING 169
SWIDTH 331 0
DWIDTH 7 0
BBX 5 5 1 2
BITMAP
F8
F8
D8
B0
60
ENDCHAR
STARTCHAR ordfeminine
ENCODING 170
SWIDTH 226 0
DWIDTH 5 0
BBX 3 2 1 4
BITMAP
E0
E0
ENDCHAR
STARTCHAR guillemotleft
ENCODING 171
SWIDTH 289 0
DWIDTH 6 0
BBX 6 5 0 0
BITMAP
14
78
A0
50
38
ENDCHAR
STARTCHAR logicalnot
ENCODING 172
SWIDTH 265 0
DWIDTH 5 0
BBX 5 3 0 2
BITMAP
F8
08
10
ENDCHAR
STARTCHAR registered
ENCODING 174
SWIDTH 331 0
DWIDTH 7 0
BBX 5 5 1 2
BITMAP
78
F8
A8
F8
70
ENDCHAR
STARTCHAR degree
ENCODING 176
SWIDTH 104 0
DWIDTH 2 0
BBX 3 3 1 5
BITMAP
60
A0
C0
ENDCHAR
STARTCHAR plusminus
ENCODING 177
SWIDTH 301 0
DWIDTH 6 0
BBX 5 5 0 0
BITMAP
10
20
78
20
F0
ENDCHAR
STARTCHAR twosuperior
ENCODING 178
SWIDTH 215 0
DWIDTH 4 0
BBX 3 3 1 3
BITMAP
E0
20
E0
ENDCHAR
STARTCHAR threesuperior
ENCODING 179
SWIDTH 190 0
DWIDTH 4 0
BBX 2 3 1 3
BITMAP
C0
40
C0
ENDCHAR
STARTCHAR acute
ENCODING 180
SWIDTH 157 0
DWIDTH 3 0
BBX 3 2 0 6
BITMAP
20
C0
ENDCHAR
STARTCHAR mu
ENCODING 181
SWIDTH 324 0
DWIDTH 6 0
BBX 7 8 -1 -3
BITMAP
12
14
24
2C
76
40
40
80
ENDCHAR
STARTCHAR paragraph
ENCODING 182
SWIDTH 392 0
DWIDTH 8 0
BBX 10 11 -2 -5
BITMAP
03C0
0F80
1F00
1F00
1F00
0F00
0600
0E00
8C00
9800
F000
ENDCHAR
STARTCHAR periodcentered
ENCODING 183
SWIDTH 112 0
DWIDTH 2 0
BBX 1 2 1 2
BITMAP
80
80
ENDCHAR
STARTCHAR cedilla
ENCODING 184
SWIDTH 115 0
DWIDTH 2 0
BBX 2 2 0 -2
BITMAP
40
80
ENDCHAR
STARTCHAR onesuperior
ENCODING 185
SWIDTH 174 0
DWIDTH 3 0
BBX 2 4 1 3
BITMAP
80
40
80
80
ENDCHAR
STARTCHAR ordmasculine
ENCODING 186
SWIDTH 178 0
DWIDTH 4 0
BBX 2 2 1 4
BITMAP
C0
C0
ENDCHAR
STARTCHAR guillemotright
ENCODING 187
SWIDTH 276 0
DWIDTH 6 0
BBX 5 5 0 0
BITMAP
60
50
38
E0
C0
ENDCHAR
STARTCHAR onequarter
ENCODING 188
SWIDTH 435 0
DWIDTH 9 0
BBX 7 8 1 -1
BITMAP
02
24
48
52
AC
4E
84
80
ENDCHAR
STARTCHAR onehalf
ENCODING 189
SWIDTH 434 0
DWIDTH 9 0
BBX 7 8 1 -1
BITMAP
02
24
48
5E
A2
44
8A
94
ENDCHAR
STARTCHAR threequarters
ENCODING 190
SWIDTH 476 0
DWIDTH 10 0
BBX 8 8 1 -1
BITMAP
03
E2
24
69
B6
6A
44
80
ENDCHAR
STARTCHAR questiondown
ENCODING 191
SWIDTH 285 0
DWIDTH 6 0
BBX 7 10 -1 -5
BITMAP
02
04
04
04
18
20
C0
80
88
70
ENDCHAR
STARTCHAR Agrave
ENCODING 192
SWIDTH 996 0
DWIDTH 20 0
BBX 19 15 1 0
BITMAP
0000C0
000020
001F80
006060
0080C0
008140
000280
000480
000880
007F00
801100
806100
808100
810120
7E00C0
ENDCHAR
STARTCHAR Aacute
ENCODING 193
SWIDTH 996 0
DWIDTH 20 0
BBX 20 15 1 0
BITMAP
000030
000040
001F80
006060
0080C0
008140
000280
000480
000880
007F00
801100
806100
808100
810120
7E00C0
ENDCHAR
STARTCHAR Acircumflex
ENCODING 194
SWIDTH 996 0
DWIDTH 20 0
BBX 20 16 1 0
BITMAP
000020
000050
000000
001F80
006060
0080C0
008140
000280
000480
000880
007F00
801100
806100
808100
810120
7E00C0
ENDCHAR
STARTCHAR Atilde
ENCODING 195
SWIDTH 996 0
DWIDTH 20 0
BBX 21 15 1 0
BITMAP
000078
0000A0
001F80
006060
0080C0
008140
000280
000480
000880
007F00
801100
806100
808100
810120
7E00C0
ENDCHAR
STARTCHAR Adieresis
ENCODING 196
SWIDTH 996 0
DWIDTH 20 0
BBX 20 15 1 0
BITMAP
000050
000000
001F80
006060
0080C0
008140
000280
000480
000880
007F00
801100
806100
808100
810120
7E00C0
ENDCHAR
STARTCHAR Aring
ENCODING 197
SWIDTH 996 0
DWIDTH 20 0
BBX 20 16 1 0
BITMAP
000020
000050
000020
001F80
006060
0080C0
008140
000280
000480
000880
007F00
801100
806100
808100
810120
7E00C0
ENDCHAR
STARTCHAR AE
ENCODING 198
SWIDTH 1271 0
DWIDTH 25 0
BBX 25 13 1 0
BITMAP
001F8F80
00607080
00805080
0081D000
00028C00
0004B000
0008C000
003F8000
80508000
80208100
80C08100
8100C100
7E003E00
ENDCHAR
STARTCHAR Ccedilla
ENCODING 199
SWIDTH 557 0
DWIDTH 11 0
BBX 12 15 1 -2
BITMAP
07E0
1810
2020
4000
8000
8000
8000
8000
8000
C040
4040
3080
0F00
0400
0800
ENDCHAR
STARTCHAR Egrave
ENCODING 200
SWIDTH 463 0
DWIDTH 9 0
BBX 10 15 1 0
BITMAP
0300
0000
0780
18C0
1080
1000
0800
3C00
6000
4000
8000
8000
8100
C100
3E00
ENDCHAR
STARTCHAR Eacute
ENCODING 201
SWIDTH 463 0
DWIDTH 9 0
BBX 10 16 1 0
BITMAP
0100
0280
0000
0780
18C0
1080
1000
0800
3C00
6000
4000
8000
8000
8100
C100
3E00
ENDCHAR
STARTCHAR Ecircumflex
ENCODING 202
SWIDTH 463 0
DWIDTH 9 0
BBX 10 16 1 0
BITMAP
0200
0500
0080
0780
18C0
1080
1000
0800
3C00
6000
4000
8000
8000
8100
C100
3E00
ENDCHAR
STARTCHAR Edieresis
ENCODING 203
SWIDTH 463 0
DWIDTH 9 0
BBX 10 15 1 0
BITMAP
0280
0000
0780
18C0
1080
1000
0800
3C00
6000
4000
8000
8000
8100
C100
3E00
ENDCHAR
STARTCHAR Igrave
ENCODING 204
SWIDTH 514 0
DWIDTH 10 0
BBX 14 15 0 0
BITMAP
0030
0000
001C
0070
0090
0120
0220
0220
0440
0440
4240
8180
8100
C200
7C00
ENDCHAR
STARTCHAR Iacute
ENCODING 205
SWIDTH 514 0
DWIDTH 10 0
BBX 14 15 0 0
BITMAP
0018
0020
001C
0070
0090
0120
0220
0220
0440
0440
4240
8180
8100
C200
7C00
ENDCHAR
STARTCHAR Icircumflex
ENCODING 206
SWIDTH 514 0
DWIDTH 10 0
BBX 14 16 0 0
BITMAP
0010
0028
0004
001C
0070
0090
0120
0220
0220
0440
0440
4240
8180
8100
C200
7C00
ENDCHAR
STARTCHAR Idieresis
ENCODING 207
SWIDTH 514 0
DWIDTH 10 0
BBX 14 15 0 0
BITMAP
0028
0000
001C
0070
0090
0120
0220
0220
0440
0440
4240
8180
8100
C200
7C00
ENDCHAR
STARTCHAR Eth
ENCODING 208
SWIDTH 800 0
DWIDTH 16 0
BBX 15 13 1 0
BITMAP
07D8
1830
2058
2048
0084
0086
0082
07E2
0102
0102
0204
FC04
F3F8
ENDCHAR
STARTCHAR Ntilde
ENCODING 209
SWIDTH 796 0
DWIDTH 16 0
BBX 24 15 -3 0
BITMAP
0000B0
000140
01D003
06300D
001810
001410
002420
002220
002140
804140
804140
808080
810080
C20080
7C0080
ENDCHAR
STARTCHAR Ograve
ENCODING 210
SWIDTH 608 0
DWIDTH 12 0
BBX 12 15 1 0
BITMAP
0300
0080
07C0
1860
2030
4010
4010
8010
8010
8010
8020
8040
C040
6180
3E00
ENDCHAR
STARTCHAR Oacute
ENCODING 211
SWIDTH 608 0
DWIDTH 12 0
BBX 12 16 1 0
BITMAP
0080
0100
0000
07C0
1860
2030
4010
4010
8010
8010
8010
8020
8040
C040
6180
3E00
ENDCHAR
STARTCHAR Ocircumflex
ENCODING 212
SWIDTH 608 0
DWIDTH 12 0
BBX 12 16 1 0
BITMAP
0100
0280
0040
07C0
1860
2030
4010
4010
8010
8010
8010
8020
8040
C040
6180
3E00
ENDCHAR
STARTCHAR Otilde
ENCODING 213
SWIDTH 608 0
DWIDTH 12 0
BBX 12 15 1 0
BITMAP
0340
0480
07C0
1860
2030
4010
4010
8010
8010
8010
8020
8040
C040
6180
3E00
ENDCHAR
STARTCHAR Odieresis
ENCODING 214
SWIDTH 608 0
DWIDTH 12 0
BBX 12 15 1 0
BITMAP
0140
0000
07C0
1860
2030
4010
4010
8010
8010
8010
8020
8040
C040
6180
3E00
ENDCHAR
STARTCHAR multiply
ENCODING 215
SWIDTH 301 0
DWIDTH 6 0
BBX 6 5 0 0
BITMAP
24
28
30
48
88
ENDCHAR
STARTCHAR Oslash
ENCODING 216
SWIDTH 605 0
DWIDTH 12 0
BBX 12 13 1 0
BITMAP
07A0
18E0
20A0
4110
4210
8410
8410
8810
9020
9020
E040
6180
BE00
ENDCHAR
STARTCHAR Ugrave
ENCODING 217
SWIDTH 717 0
DWIDTH 14 0
BBX 15 15 1 0
BITMAP
0040
0030
1F02
6184
8204
8408
8808
8810
8810
1030
1020
10E0
10A0
1128
0E30
ENDCHAR
STARTCHAR Uacute
ENCODING 218
SWIDTH 717 0
DWIDTH 14 0
BBX 15 15 1 0
BITMAP
0008
0030
1F02
6184
8204
8408
8808
8810
8810
1030
1020
10E0
10A0
1128
0E30
ENDCHAR
STARTCHAR Ucircumflex
ENCODING 219
SWIDTH 718 0
DWIDTH 14 0
BBX 15 15 1 0
BITMAP
0010
0068
1F02
6184
8204
8408
8808
8810
8810
1030
1020
10E0
10A0
1128
0E30
ENDCHAR
STARTCHAR Udieresis
ENCODING 220
SWIDTH 718 0
DWIDTH 14 0
BBX 15 15 1 0
BITMAP
0028
0000
1F02
6184
8204
8408
8808
8810
8810
1030
1020
10E0
10A0
1128
0E30
ENDCHAR
STARTCHAR Yacute
ENCODING 221
SWIDTH 662 0
DWIDTH 13 0
BBX 18 18 0 -3
BITMAP
000600
000800
00C040
034080
004080
008100
008100
008200
010200
010400
390C00
411800
81F000
801000
802000
804000
418000
3E0000
ENDCHAR
STARTCHAR Thorn
ENCODING 222
SWIDTH 745 0
DWIDTH 15 0
BBX 15 14 1 0
BITMAP
000C
0008
0010
0078
01A4
0222
0022
0042
4044
8144
80B8
8100
4200
3C00
ENDCHAR
STARTCHAR germandbls
ENCODING 223
SWIDTH 304 0
DWIDTH 6 0
BBX 17 19 -6 -5
BITMAP
000F80
001080
002080
002180
004300
004400
004800
009000
00A000
00A000
012000
011000
011000
027000
020000
040000
040000
880000
F00000
ENDCHAR
STARTCHAR agrave
ENCODING 224
SWIDTH 294 0
DWIDTH 6 0
BBX 5 8 1 0
BITMAP
30
10
08
70
50
A0
A0
D0
ENDCHAR
STARTCHAR aacute
ENCODING 225
SWIDTH 294 0
DWIDTH 6 0
BBX 5 8 1 0
BITMAP
08
30
00
70
50
A0
A0
D0
ENDCHAR
STARTCHAR acircumflex
ENCODING 226
SWIDTH 294 0
DWIDTH 6 0
BBX 4 9 1 0
BITMAP
20
50
00
00
70
50
A0
A0
D0
ENDCHAR
STARTCHAR atilde
ENCODING 227
SWIDTH 294 0
DWIDTH 6 0
BBX 5 8 1 0
BITMAP
28
50
00
70
50
A0
A0
D0
ENDCHAR
STARTCHAR adieresis
ENCODING 228
SWIDTH 284 0
DWIDTH 6 0
BBX 5 7 1 0
BITMAP
78
00
70
50
A0
A0
D0
ENDCHAR
STARTCHAR aring
ENCODING 229
SWIDTH 294 0
DWIDTH 6 0
BBX 4 8 1 0
BITMAP
30
30
00
70
50
A0
A0
D0
ENDCHAR
STARTCHAR ae
ENCODING 230
SWIDTH 363 0
DWIDTH 7 0
BBX 8 6 0 0
BITMAP
04
7F
8A
9C
A8
CE
ENDCHAR
STARTCHAR ccedilla
ENCODING 231
SWIDTH 203 0
DWIDTH 4 0
BBX 4 8 0 -3
BITMAP
70
80
80
A0
C0
40
40
80
ENDCHAR
STARTCHAR egrave
ENCODING 232
SWIDTH 206 0
DWIDTH 4 0
BBX 4 8 1 0
BITMAP
60
20
10
E0
A0
C0
80
E0
ENDCHAR
STARTCHAR eacute
ENCODING 233
SWIDTH 206 0
DWIDTH 4 0
BBX 4 8 1 0
BITMAP
10
20
00
E0
A0
C0
80
E0
ENDCHAR
STARTCHAR ecircumflex
ENCODING 234
SWIDTH 206 0
DWIDTH 4 0
BBX 3 9 1 0
BITMAP
40
A0
00
00
E0
A0
C0
80
E0
ENDCHAR
STARTCHAR edieresis
ENCODING 235
SWIDTH 206 0
DWIDTH 4 0
BBX 4 7 1 0
BITMAP
50
00
E0
A0
C0
80
E0
ENDCHAR
STARTCHAR igrave
ENCODING 236
SWIDTH 149 0
DWIDTH 3 0
BBX 3 8 1 0
BITMAP
C0
40
20
40
C0
80
80
C0
ENDCHAR
STARTCHAR iacute
ENCODING 237
SWIDTH 149 0
DWIDTH 3 0
BBX 3 8 1 0
BITMAP
20
40
00
40
C0
80
80
C0
ENDCHAR
STARTCHAR icircumflex
ENCODING 238
SWIDTH 149 0
DWIDTH 3 0
BBX 3 9 1 0
BITMAP
40
A0
00
00
40
C0
80
80
C0
ENDCHAR
STARTCHAR idieresis
ENCODING 239
SWIDTH 149 0
DWIDTH 3 0
BBX 3 7 1 0
BITMAP
A0
00
40
C0
80
80
C0
ENDCHAR
STARTCHAR eth
ENCODING 240
SWIDTH 234 0
DWIDTH 5 0
BBX 4 13 0 0
BITMAP
C0
80
40
30
20
50
10
10
70
50
50
60
60
ENDCHAR
STARTCHAR ntilde
ENCODING 241
SWIDTH 291 0
DWIDTH 6 0
BBX 6 8 0 0
BITMAP
14
28
00
CC
78
48
48
8C
ENDCHAR
STARTCHAR ograve
ENCODING 242
SWIDTH 225 0
DWIDTH 5 0
BBX 5 8 0 0
BITMAP
10
08
00
70
90
A0
A0
C0
ENDCHAR
STARTCHAR oacute
ENCODING 243
SWIDTH 225 0
DWIDTH 5 0
BBX 5 8 0 0
BITMAP
08
10
00
70
90
A0
A0
C0
ENDCHAR
STARTCHAR ocircumflex
ENCODING 244
SWIDTH 225 0
DWIDTH 5 0
BBX 5 9 0 0
BITMAP
10
68
00
00
70
90
A0
A0
C0
ENDCHAR
STARTCHAR otilde
ENCODING 245
SWIDTH 225 0
DWIDTH 5 0
BBX 5 8 0 0
BITMAP
38
58
00
70
90
A0
A0
C0
ENDCHAR
STARTCHAR odieresis
ENCODING 246
SWIDTH 225 0
DWIDTH 5 0
BBX 5 7 0 0
BITMAP
28
00
70
90
A0
A0
C0
ENDCHAR
STARTCHAR divide
ENCODING 247
SWIDTH 301 0
DWIDTH 6 0
BBX 4 4 1 1
BITMAP
20
00
F0
40
ENDCHAR
STARTCHAR oslash
ENCODING 248
SWIDTH 225 0
DWIDTH 5 0
BBX 5 6 0 0
BITMAP
08
30
D0
F0
A0
C0
ENDCHAR
STARTCHAR ugrave
ENCODING 249
SWIDTH 299 0
DWIDTH 6 0
BBX 5 8 1 0
BITMAP
30
10
08
48
D0
90
F0
98
ENDCHAR
STARTCHAR uacute
ENCODING 250
SWIDTH 299 0
DWIDTH 6 0
BBX 5 8 1 0
BITMAP
08
10
00
48
D0
90
F0
98
ENDCHAR
STARTCHAR ucircumflex
ENCODING 251
SWIDTH 299 0
DWIDTH 6 0
BBX 5 9 1 0
BITMAP
20
50
00
00
48
D0
90
F0
98
ENDCHAR
STARTCHAR udieresis
ENCODING 252
SWIDTH 299 0
DWIDTH 6 0
BBX 5 7 1 0
BITMAP
28
00
48
D0
90
F0
98
ENDCHAR
STARTCHAR yacute
ENCODING 253
SWIDTH 280 0
DWIDTH 6 0
BBX 9 13 -3 -5
BITMAP
0080
0100
0000
0480
0C80
0900
0B00
0E00
0200
0200
8400
8800
F000
ENDCHAR
STARTCHAR thorn
ENCODING 254
SWIDTH 261 0
DWIDTH 5 0
BBX 6 15 -1 -5
BITMAP
04
18
08
08
10
1C
24
44
48
70
80
80
80
80
C0
ENDCHAR
STARTCHAR ydieresis
ENCODING 255
SWIDTH 280 0
DWIDTH 6 0
BBX 9 12 -3 -5
BITMAP
0780
0000
0480
0C80
0900
0B00
0E00
0200
0200
8400
8800
F000
ENDCHAR
STARTCHAR dotlessi
ENCODING 305
SWIDTH 149 0
DWIDTH 3 0
BBX 2 5 1 0
BITMAP
40
C0
80
80
C0
ENDCHAR
STARTCHAR Lslash
ENCODING 321
SWIDTH 657 0
DWIDTH 13 0
BBX 14 13 0 0
BITMAP
001C
0064
0044
0080
0080
0100
07E0
0100
0100
0200
7208
8E10
F9E0
ENDCHAR
STARTCHAR lslash
ENCODING 322
SWIDTH 134 0
DWIDTH 3 0
BBX 9 15 1 0
BITMAP
0180
0680
0800
0800
1000
1000
3800
6000
4000
4000
4000
8000
8000
8000
C000
ENDCHAR
STARTCHAR OE
ENCODING 338
SWIDTH 827 0
DWIDTH 17 0
BBX 17 13 1 0
BITMAP
07CF00
187180
202100
402000
401000
807800
80C000
818000
810000
810000
C10200
608200
3F7C00
ENDCHAR
STARTCHAR oe
ENCODING 339
SWIDTH 345 0
DWIDTH 7 0
BBX 7 5 0 0
BITMAP
3E
D2
9C
90
FE
ENDCHAR
STARTCHAR Scaron
ENCODING 352
SWIDTH 480 0
DWIDTH 10 0
BBX 10 16 1 0
BITMAP
0040
0380
0000
0380
0C40
0840
0800
0C00
0400
0200
0300
4100
8100
8100
8200
7C00
ENDCHAR
STARTCHAR scaron
ENCODING 353
SWIDTH 188 0
DWIDTH 4 0
BBX 6 8 -1 0
BITMAP
14
08
00
38
20
10
90
E0
ENDCHAR
STARTCHAR Ydieresis
ENCODING 376
SWIDTH 662 0
DWIDTH 13 0
BBX 18 18 0 -3
BITMAP
001400
000000
00C040
034080
004080
008100
008100
008200
010200
010400
390C00
411800
81F000
801000
802000
804000
418000
3E0000
ENDCHAR
STARTCHAR Zcaron
ENCODING 381
SWIDTH 625 0
DWIDTH 13 0
BBX 13 16 1 0
BITMAP
0020
00C0
0000
03C0
0438
0820
1040
0080
0100
0200
0400
0800
1020
6020
7040
8F80
ENDCHAR
STARTCHAR zcaron
ENCODING 382
SWIDTH 248 0
DWIDTH 5 0
BBX 7 8 -1 0
BITMAP
0E
00
00
38
50
20
48
F0
ENDCHAR
STARTCHAR florin
ENCODING 402
SWIDTH 214 0
DWIDTH 4 0
BBX 7 8 -2 -2
BITMAP
06
08
10
1C
10
10
20
C0
ENDCHAR
STARTCHAR circumflex
ENCODING 710
SWIDTH 196 0
DWIDTH 4 0
BBX 3 2 0 7
BITMAP
40
A0
ENDCHAR
STARTCHAR caron
ENCODING 711
SWIDTH 196 0
DWIDTH 4 0
BBX 3 1 1 7
BITMAP
E0
ENDCHAR
STARTCHAR breve
ENCODING 728
SWIDTH 198 0
DWIDTH 4 0
BBX 4 2 0 6
BITMAP
B0
60
ENDCHAR
STARTCHAR dotaccent
ENCODING 729
SWIDTH 89 0
DWIDTH 2 0
BBX 1 2 0 6
BITMAP
80
80
ENDCHAR
STARTCHAR ring
ENCODING 730
SWIDTH 117 0
DWIDTH 2 0
BBX 2 2 0 6
BITMAP
C0
C0
ENDCHAR
STARTCHAR ogonek
ENCODING 731
SWIDTH 124 0
DWIDTH 2 0
BBX 2 2 0 -2
BITMAP
C0
C0
ENDCHAR
STARTCHAR tilde
ENCODING 732
SWIDTH 222 0
DWIDTH 4 0
BBX 4 2 0 6
BITMAP
50
A0
ENDCHAR
STARTCHAR hungarumlaut
ENCODING 733
SWIDTH 253 0
DWIDTH 5 0
BBX 5 2 0 6
BITMAP
58
A0
ENDCHAR
STARTCHAR mu.dup2
ENCODING 956
SWIDTH 324 0
DWIDTH 6 0
BBX 7 8 -1 -3
BITMAP
12
14
24
2C
76
40
40
80
ENDCHAR
STARTCHAR endash
ENCODING 8211
SWIDTH 500 0
DWIDTH 10 0
BBX 10 1 0 3
BITMAP
FFC0
ENDCHAR
STARTCHAR emdash
ENCODING 8212
SWIDTH 1000 0
DWIDTH 20 0
BBX 20 1 0 3
BITMAP
FFFFF0
ENDCHAR
STARTCHAR quoteleft
ENCODING 8216
SWIDTH 87 0
DWIDTH 2 0
BBX 2 3 1 5
BITMAP
C0
80
80
ENDCHAR
STARTCHAR quoteright
ENCODING 8217
SWIDTH 87 0
DWIDTH 2 0
BBX 2 3 1 5
BITMAP
40
40
80
ENDCHAR
STARTCHAR quotesinglbase
ENCODING 8218
SWIDTH 112 0
DWIDTH 2 0
BBX 2 2 0 -1
BITMAP
40
80
ENDCHAR
STARTCHAR quotedblleft
ENCODING 8220
SWIDTH 167 0
DWIDTH 3 0
BBX 4 3 1 5
BITMAP
50
A0
A0
ENDCHAR
STARTCHAR quotedblright
ENCODING 8221
SWIDTH 167 0
DWIDTH 4 0
BBX 4 3 1 5
BITMAP
50
50
A0
ENDCHAR
STARTCHAR quotedblbase
ENCODING 8222
SWIDTH 192 0
DWIDTH 4 0
BBX 3 2 0 -1
BITMAP
60
C0
ENDCHAR
STARTCHAR dagger
ENCODING 8224
SWIDTH 185 0
DWIDTH 4 0
BBX 4 13 0 -2
BITMAP
10
20
20
40
F0
40
40
80
80
80
80
80
80
ENDCHAR
STARTCHAR daggerdbl
ENCODING 8225
SWIDTH 185 0
DWIDTH 4 0
BBX 5 12 0 -1
BITMAP
08
10
10
10
78
20
20
40
F0
40
40
80
ENDCHAR
STARTCHAR bullet
ENCODING 8226
SWIDTH 207 0
DWIDTH 4 0
BBX 2 2 1 2
BITMAP
C0
C0
ENDCHAR
STARTCHAR ellipsis
ENCODING 8230
SWIDTH 376 0
DWIDTH 8 0
BBX 6 1 1 0
BITMAP
A4
ENDCHAR
STARTCHAR perthousand
ENCODING 8240
SWIDTH 571 0
DWIDTH 11 0
BBX 11 9 0 -1
BITMAP
0200
0200
6400
9800
B260
5EA0
2B20
4CC0
4000
ENDCHAR
STARTCHAR guilsinglleft
ENCODING 8249
SWIDTH 189 0
DWIDTH 4 0
BBX 4 5 -1 0
BITMAP
10
60
80
40
20
ENDCHAR
STARTCHAR guilsinglright
ENCODING 8250
SWIDTH 176 0
DWIDTH 4 0
BBX 3 5 -1 0
BITMAP
40
20
20
40
80
ENDCHAR
STARTCHAR fraction
ENCODING 8260
SWIDTH 220 0
DWIDTH 4 0
BBX 6 8 0 -1
BITMAP
04
08
10
10
20
40
80
80
ENDCHAR
STARTCHAR Euro
ENCODING 8364
SWIDTH 360 0
DWIDTH 7 0
BBX 6 7 0 0
BITMAP
1C
68
70
C0
F0
40
78
ENDCHAR
STARTCHAR trademark
ENCODING 8482
SWIDTH 389 0
DWIDTH 8 0
BBX 6 3 1 3
BITMAP
F4
AC
D4
ENDCHAR
STARTCHAR minus
ENCODING 8722
SWIDTH 301 0
DWIDTH 6 0
BBX 5 1 1 2
BITMAP
F8
ENDCHAR
STARTCHAR fi
ENCODING 64257
SWIDTH 297 0
DWIDTH 6 0
BBX 17 20 -6 -5
BITMAP
000380
000C80
001000
001000
002000
002000
004400
004800
005000
008000
01F000
00A000
012000
012000
013000
020000
020000
040000
880000
F00000
ENDCHAR
STARTCHAR fl
ENCODING 64258
SWIDTH 290 0
DWIDTH 6 0
BBX 19 20 -6 -5
BITMAP
000260
000DA0
001200
002200
002400
004800
004800
004800
009000
009000
01F000
00A000
012000
013000
013000
020000
020000
040000
880000
700000
ENDCHAR
STARTCHAR .notdef
ENCODING -1
SWIDTH 150 0
DWIDTH 3 0
BBX 1 1 0 0
BITMAP
00
ENDCHAR
STARTCHAR .null
ENCODING -1
SWIDTH 0 0
DWIDTH 0 0
BBX 1 1 0 0
BITMAP
00
ENDCHAR
STARTCHAR nonmarkingreturn
ENCODING -1
SWIDTH 150 0
DWIDTH 3 0
BBX 1 1 0 0
BITMAP
00
ENDCHAR
ENDFONT
